<svg xmlns="http://www.w3.org/2000/svg" width="1040" height="280" viewBox="0 0 1040 280" fill="none">
  <rect width="1040" height="280" fill="#fbfcf8"/>
  <g transform="translate(30 40) scale(0.781250)">

  <defs>
    <clipPath id="faerry-mark-clip"><circle cx="128" cy="128" r="108"/></clipPath>
  </defs>
  <g aria-label="Faerry standalone ferry seal mark">
    <g clip-path="url(#faerry-mark-clip)">
      <rect x="0" y="132" width="256" height="124" fill="#10201f"/>
      <rect x="0" y="124" width="158" height="9" fill="#10201f"/>
      <polygon points="158,124 224,124 217,133 165,133" fill="#24b8a3"/>
    </g>
    <circle cx="128" cy="128" r="108" fill="none" stroke="#10201f" stroke-width="18"/>
    <path fill="#10201f" d="M86 112h84l-9 20H95l-9-20Zm28-27h28v27h-28V85Z"/>
  </g>
  </g>
  <g aria-label="Faerry wordmark" transform="translate(278.000 180.771) scale(0.740691 -0.740691)">
    <path d="M7.812,0.000 L48.438,0.000 L48.438,52.344 L113.188,52.344 L113.188,85.344 L48.438,85.344 L48.438,111.125 L117.094,111.125 L117.094,145.500 L7.812,145.500 L7.812,0.000 Z M161.027,-1.844 L163.473,-1.812 L168.094,-1.412 L172.397,-0.561 L176.391,0.791 L180.083,2.696 L183.479,5.202 L186.587,8.362 L189.415,12.225 L190.715,14.469 L191.121,14.469 L191.121,0.000 L229.215,0.000 L229.215,68.938 L229.182,71.115 L228.785,75.265 L227.994,79.166 L226.813,82.815 L225.245,86.208 L223.292,89.340 L220.958,92.207 L218.246,94.806 L215.160,97.132 L211.702,99.182 L207.876,100.951 L203.684,102.435 L196.763,104.155 L186.226,105.366 L180.371,105.469 L174.556,105.366 L164.080,104.155 L157.178,102.435 L152.983,100.951 L149.137,99.182 L145.641,97.132 L142.496,94.806 L139.702,92.207 L137.261,89.340 L135.173,86.208 L133.439,82.815 L132.060,79.166 L131.036,75.265 L130.369,71.115 L130.184,68.938 L165.934,68.938 L166.087,70.053 L166.689,72.065 L167.642,73.810 L168.936,75.280 L170.565,76.469 L172.521,77.371 L176.015,78.209 L178.809,78.312 L181.401,78.222 L185.699,77.193 L188.077,75.796 L189.260,74.626 L190.073,73.268 L190.491,71.738 L190.527,70.906 L190.527,70.500 L190.474,69.467 L189.806,67.659 L188.418,66.136 L186.258,64.867 L181.567,63.355 L171.982,61.996 L165.527,61.531 L161.393,61.201 L153.577,59.947 L146.436,57.902 L140.117,54.978 L136.040,52.123 L133.635,49.920 L131.518,47.447 L129.709,44.695 L128.224,41.651 L127.083,38.305 L126.304,34.645 L125.905,30.662 L125.871,28.531 L125.984,24.765 L127.292,18.063 L129.812,12.348 L133.446,7.610 L138.098,3.839 L143.672,1.026 L150.071,-0.839 L157.197,-1.767 L161.027,-1.844 Z M173.746,22.469 L171.312,22.566 L167.185,23.693 L164.853,25.253 L163.678,26.576 L162.862,28.129 L162.439,29.902 L162.402,30.875 L162.440,31.846 L162.887,33.651 L163.761,35.287 L165.042,36.750 L167.636,38.629 L172.396,40.448 L175.309,41.031 L180.383,41.949 L187.930,43.742 L190.934,44.719 L190.934,36.531 L190.865,34.842 L190.093,31.805 L188.657,29.181 L186.667,26.978 L184.229,25.203 L181.453,23.861 L178.447,22.961 L175.320,22.507 L173.746,22.469 Z M296.879,-2.344 L301.929,-2.227 L311.543,-0.878 L320.437,1.717 L328.461,5.455 L335.466,10.233 L339.921,14.465 L342.518,17.537 L344.776,20.813 L346.677,24.277 L348.201,27.918 L349.330,31.722 L349.723,33.688 L315.129,33.688 L314.698,32.662 L313.527,30.793 L312.005,29.154 L310.156,27.757 L306.858,26.108 L301.494,24.916 L298.441,24.812 L296.350,24.863 L292.532,25.455 L289.174,26.617 L286.298,28.325 L283.928,30.557 L282.087,33.291 L280.797,36.504 L280.082,40.172 L279.973,42.188 L350.098,42.188 L350.098,52.625 L350.054,55.511 L349.539,61.095 L348.529,66.438 L347.042,71.521 L345.098,76.325 L342.716,80.832 L339.916,85.023 L336.716,88.879 L333.136,92.381 L329.195,95.511 L324.912,98.250 L320.307,100.580 L315.398,102.481 L310.205,103.935 L304.748,104.923 L299.044,105.426 L296.098,105.469 L293.148,105.425 L287.440,104.910 L281.979,103.900 L276.785,102.414 L271.875,100.471 L267.269,98.091 L262.987,95.293 L259.047,92.097 L255.468,88.521 L252.270,84.586 L249.472,80.310 L247.092,75.713 L245.150,70.814 L243.665,65.633 L242.655,60.188 L242.141,54.501 L242.098,51.562 L242.142,48.624 L242.663,42.937 L243.687,37.492 L245.193,32.311 L247.162,27.412 L249.576,22.815 L252.414,18.539 L255.658,14.604 L259.288,11.028 L263.284,7.832 L267.629,5.034 L272.301,2.654 L277.282,0.711 L282.553,-0.775 L288.094,-1.785 L293.886,-2.300 L296.879,-2.344 Z M280.285,64.062 L280.574,65.629 L281.513,68.477 L282.870,70.968 L284.632,73.087 L286.783,74.815 L289.306,76.137 L292.188,77.035 L295.411,77.492 L297.160,77.531 L298.909,77.492 L302.133,77.035 L305.015,76.137 L307.540,74.815 L309.693,73.087 L311.460,70.968 L312.824,68.477 L313.772,65.629 L314.066,64.062 L280.285,64.062 Z M362.605,0.000 L401.668,0.000 L401.668,49.406 L401.728,51.950 L402.433,56.620 L403.804,60.748 L405.803,64.294 L408.393,67.215 L411.535,69.469 L415.192,71.014 L419.324,71.807 L421.574,71.875 L435.855,71.875 L435.855,103.125 L426.074,103.125 L423.472,103.087 L418.768,102.606 L414.636,101.595 L411.044,100.006 L407.959,97.792 L405.349,94.902 L403.180,91.290 L401.421,86.906 L400.699,84.375 L400.480,84.375 L400.480,103.125 L362.605,103.125 L362.605,0.000 Z M445.809,0.000 L484.871,0.000 L484.871,49.406 L484.931,51.950 L485.636,56.620 L487.007,60.748 L489.007,64.294 L491.596,67.215 L494.739,69.469 L498.395,71.014 L502.527,71.807 L504.777,71.875 L519.059,71.875 L519.059,103.125 L509.277,103.125 L506.675,103.087 L501.971,102.606 L497.839,101.595 L494.247,100.006 L491.162,97.792 L488.552,94.902 L486.383,91.290 L484.624,86.906 L483.902,84.375 L483.684,84.375 L483.684,103.125 L445.809,103.125 L445.809,0.000 Z M533.012,-40.812 L559.574,-40.812 L562.986,-40.753 L569.159,-40.012 L574.622,-38.473 L579.453,-36.077 L583.727,-32.766 L587.523,-28.483 L590.918,-23.170 L593.989,-16.769 L595.418,-13.094 L638.980,103.125 L598.730,103.125 L585.262,59.375 L582.230,49.328 L579.480,39.156 L576.715,49.266 L573.824,59.375 L560.855,103.125 L520.199,103.125 L559.762,0.000 L559.293,-1.562 L558.482,-4.117 L556.861,-7.822 L555.254,-9.581 L553.869,-10.373 L551.155,-11.052 L548.637,-11.125 L533.012,-11.125 L533.012,-40.812 Z" fill="#10201f"/>
  </g>
</svg>
